<svg xmlns="http://www.w3.org/2000/svg" viewBox="-1.015625 -36.9921875 177.109375 40.328125" fill="#222">
  <path d="M19.88 1.34L19.88 1.34Q12.45 1.34 6.71-3.40Q0.98-8.13 0.98-16.43L0.98-16.43Q0.98-24.52 6.55-29.43Q12.12-34.34 19.88-34.34L19.88-34.34Q22.64-34.34 25.77-33.71Q28.90-33.09 31.99-31.13L31.99-31.13L31.41-25.92Q31.22-25.10 30.35-25.10L30.35-25.10L30.26-25.10Q29.60-25.15 29.13-26.06L29.13-26.06Q27.68-29.16 25.57-30.16Q23.46-31.17 19.88-31.17L19.88-31.17Q14.91-31.17 10.99-27.69Q7.08-24.21 7.08-16.43L7.08-16.43Q7.08-11.46 10.76-6.86Q14.44-2.25 19.90-1.99L19.90-1.99Q20.46-1.97 20.95-1.97L20.95-1.97Q23.79-1.97 25.62-2.81L25.62-2.81Q27.68-3.80 29.13-6.91L29.13-6.91Q29.58-7.76 30.23-7.88L30.23-7.88L30.40-7.88Q31.27-7.88 31.41-7.03L31.41-7.03L31.48-6.38L29.34-0.40Q26.79 0.66 24.40 1.00Q22.01 1.34 19.88 1.34ZM46.27-22.88L46.36-22.88Q51.21-22.69 54.52-19.20Q57.82-15.70 57.89-10.90L57.89-10.90L57.89-10.76Q57.89-5.91 54.45-2.53L54.45-2.53Q50.91 0.91 45.77 1.05L45.77 1.05L45.40 1.05Q40.62 1.05 37.17-2.46L37.17-2.46Q33.68-6 33.68-10.83L33.68-10.83L33.68-10.90Q33.70-16.20 37.69-19.83L37.69-19.83Q38.23-20.32 39.16-20.65Q40.10-20.98 41.84-21.61L41.84-21.61Q42.87-21.98 44.11-22.43L44.11-22.43Q45.40-22.88 46.27-22.88L46.27-22.88ZM45.82-20.37L45.82-20.37L45.56-20.37Q43.15-20.37 41.34-17.95L41.34-17.95Q39.35-15.26 39.35-11.27L39.35-11.27Q39.35-7.29 41.29-4.44Q43.22-1.59 45.82-1.48L45.82-1.48L46.13-1.48Q48.52-1.48 50.30-3.89L50.30-3.89Q52.29-6.56 52.29-10.55L52.29-10.55Q52.29-14.53 50.34-17.38Q48.40-20.23 45.82-20.37ZM67.83-23.95L67.83-20.74Q68.30-20.91 69.28-21.28Q70.27-21.66 71.16-21.96L71.16-21.96Q73.41-22.76 75.80-22.99L75.80-22.99Q76.13-23.02 76.45-23.02L76.45-23.02Q78.66-23.02 80.60-21.54L80.60-21.54Q83.63-19.22 83.63-11.86L83.63-11.86L83.63-3.42Q83.63-2.20 84.80-1.79Q85.97-1.38 85.97-0.49L85.97-0.49Q85.97 0.47 84.91 0.47L84.91 0.47L79.22 0.47Q78.23 0.47 78.23-0.30L78.23-0.30L78.23-11.86Q78.23-16.83 76.24-18.77L76.24-18.77Q75.05-19.95 73.36-19.95L73.36-19.95Q72.35-19.95 71.13-19.55L71.13-19.55Q70.62-19.36 69.83-19.07Q69.05-18.77 68.46-18.54L68.46-18.54Q67.92-18.35 67.83-18.30L67.83-18.30L67.83-3.42Q67.83-2.20 69-1.79Q70.17-1.38 70.17-0.49L70.17-0.49Q70.17 0.47 69.12 0.47L69.12 0.47L61.17 0.47Q60.09 0.47 60.09-0.49L60.09-0.49Q60.09-1.38 61.27-1.79Q62.44-2.20 62.44-3.42L62.44-3.42L62.44-18.42Q62.44-19.59 61.27-20.02Q60.09-20.44 60.09-21.35L60.09-21.35Q60.09-22.31 61.15-22.31L61.15-22.31Q62.60-22.38 64.07-22.78Q65.53-23.18 67.83-23.95L67.83-23.95ZM105.23-0.30L105.23-1.31L99.61 0.75Q98.74 1.05 98.13 1.05L98.13 1.05L97.15 1.05Q93.54 0.87 91.01-1.80L91.01-1.80Q88.45-4.52 88.10-8.39L88.10-8.39Q88.01-9.38 88.01-10.31L88.01-10.31Q88.01-11.55 88.17-12.73L88.17-12.73Q88.48-14.81 89.79-16.88L89.79-16.88Q90.42-17.98 91.99-19.17L91.99-19.17Q92.58-19.57 93.28-19.88L93.28-19.88Q95.18-20.58 97.07-21.28Q98.95-21.98 100.85-22.69L100.85-22.69Q101.37-22.88 101.84-22.88L101.84-22.88L101.98-22.88Q103.57-22.80 105.82-22.08L105.82-22.08L105.87-22.08Q105.87-22.10 105.23-22.41L105.23-22.41L105.23-29.46Q105.23-30.66 104.06-31.08Q102.89-31.50 102.89-32.41L102.89-32.41Q102.89-33.38 103.95-33.38L103.95-33.38Q105.40-33.45 106.86-33.83Q108.33-34.22 110.65-34.99L110.65-34.99L110.65-3.42Q110.65-2.20 111.82-1.79Q112.99-1.38 112.99-0.49L112.99-0.49Q112.99 0.47 111.91 0.47L111.91 0.47L106.22 0.47Q105.23 0.47 105.23-0.30L105.23-0.30ZM105.23-3.70L105.23-17.88Q104.39-18.63 102.96-19.30Q101.53-19.97 100.48-20.02L100.48-20.02L100.41-20.02Q100.08-20.02 99.70-19.88L99.70-19.88Q98.86-19.57 98.03-19.25Q97.20-18.94 96.35-18.63L96.35-18.63Q95.91-18.45 95.65-18.16L95.65-18.16Q94.29-16.71 93.82-14.63L93.82-14.63Q93.42-12.98 93.42-11.39L93.42-11.39Q93.42-10.90 93.47-10.36L93.47-10.36Q93.73-7.10 95.23-5.09L95.23-5.09Q96.68-3.05 98.84-2.46L98.84-2.46Q99.63-2.23 100.45-2.23L100.45-2.23Q100.71-2.23 100.97-2.25L100.97-2.25Q101.39-2.30 102.02-2.51L102.02-2.51Q102.56-2.70 103.71-3.13Q104.86-3.56 105.23-3.70L105.23-3.70ZM140.48-23.95L140.48-3.42Q140.48-2.20 141.66-1.79Q142.83-1.38 142.83-0.49L142.83-0.49Q142.83 0.47 141.75 0.47L141.75 0.47L136.05 0.47Q135.07 0.47 135.07-0.30L135.07-0.30L135.07-1.08Q134.63-0.91 133.62-0.53Q132.61-0.14 131.72 0.16L131.72 0.16Q129.49 0.91 127.13 1.15L127.13 1.15Q126.75 1.17 126.42 1.17L126.42 1.17Q124.24 1.17 122.32-0.26L122.32-0.26Q119.27-2.58 119.27-9.96L119.27-9.96L119.27-18.42Q119.27-19.59 118.10-20.02Q116.93-20.44 116.93-21.35L116.93-21.35Q116.93-22.31 117.98-22.31L117.98-22.31Q119.44-22.38 120.90-22.78Q122.37-23.18 124.69-23.95L124.69-23.95L124.69-9.96Q124.69-4.97 126.68-3.05L126.68-3.05Q127.88-1.88 129.56-1.88L129.56-1.88Q130.57-1.88 131.84-2.30L131.84-2.30Q132.28-2.44 133.08-2.74Q133.88-3.05 134.41-3.26L134.41-3.26Q134.55-3.30 134.81-3.40L134.81-3.40L135.07-3.49L135.07-18.42Q135.07-19.59 133.90-20.02Q132.73-20.44 132.73-21.35L132.73-21.35Q132.73-22.31 133.78-22.31L133.78-22.31Q135.23-22.38 136.70-22.78Q138.16-23.18 140.48-23.95L140.48-23.95ZM151.64-33.28L151.64-33.28Q154.78-33.28 154.78-30.23L154.78-30.23Q154.78-27.16 151.64-27.16L151.64-27.16Q148.50-27.16 148.50-30.23L148.50-30.23Q148.50-33.28 151.64-33.28ZM154.34-23.95L154.34-3.42Q154.34-2.20 155.51-1.79Q156.68-1.38 156.68-0.49L156.68-0.49Q156.68 0.47 155.63 0.47L155.63 0.47L147.68 0.47Q146.60 0.47 146.60-0.49L146.60-0.49Q146.60-1.38 147.77-1.79Q148.95-2.20 148.95-3.42L148.95-3.42L148.95-18.42Q148.95-19.59 147.77-20.02Q146.60-20.44 146.60-21.35L146.60-21.35Q146.60-22.31 147.66-22.31L147.66-22.31Q149.11-22.38 150.57-22.78Q152.04-23.18 154.34-23.95L154.34-23.95ZM162.73-5.86L162.73-19.31Q162.45-19.31 160.66-19.22L160.66-19.22L160.52-19.22Q159.52-19.22 159.47-20.16L159.47-20.16L159.47-20.20Q159.47-20.84 160.22-21.19L160.22-21.19Q160.66-21.40 162.12-22.20L162.12-22.20Q162.49-22.38 162.89-22.55L162.89-22.55Q162.96-22.57 162.96-22.59L162.96-22.59Q162.96-22.62 162.73-22.62L162.73-22.62L162.73-26.16Q162.73-27.49 163.31-28.04Q163.90-28.59 165.70-29.46L165.70-29.46Q166.48-29.84 167.02-29.84L167.02-29.84Q168.14-29.84 168.14-28.76L168.14-28.76L168.14-22.71L173.13-22.80L173.16-22.80Q174.09-22.80 174.09-21.73L174.09-21.73Q174.09-21.38 174-20.86L174-20.86Q173.67-19.36 172.36-19.36L172.36-19.36L168.14-19.38L168.14-5.16Q168.14-3.23 169.46-2.30Q170.79-1.36 172.17-1.17L172.17-1.17L172.17 0.45Q168 0.45 165.36-0.28Q162.73-1.01 162.73-5.86L162.73-5.86Z"/>
</svg>